<svg id="Layer_1" data-name="Layer 1" xmlns="http://www.w3.org/2000/svg" viewBox="0 0 300 300"><title>attribution</title><path d="M151.15,16.78C77.69,16.78,17.92,76.55,17.92,150S77.69,283.23,151.15,283.23,284.37,223.46,284.37,150,224.6,16.78,151.15,16.78Zm0,231.45A98.23,98.23,0,1,1,249.37,150,98.34,98.34,0,0,1,151.15,248.23Z"/><path d="M174.3,113H125.7a7.56,7.56,0,0,0-7.6,7.6v41.63a6.76,6.76,0,0,0,6.76,6.76h6.76v50.7a6.76,6.76,0,0,0,6.76,6.76h23.24a6.76,6.76,0,0,0,6.76-6.76V169h6.76a6.76,6.76,0,0,0,6.76-6.76V120.63a7.19,7.19,0,0,0-2.32-5.38A7.44,7.44,0,0,0,174.3,113Z"/><path d="M150,106.69q16.47,0,16.47-16.48,0-16.68-16.47-16.69T133.51,90.21Q133.51,106.7,150,106.69Z"/></svg>