<svg id="Layer_1" data-name="Layer 1" xmlns="http://www.w3.org/2000/svg" viewBox="0 0 300 300"><title>non_commercial</title><path d="M151.15,16.78C77.69,16.78,17.92,76.55,17.92,150S77.69,283.23,151.15,283.23,284.37,223.46,284.37,150,224.6,16.78,151.15,16.78Zm0,35a98.24,98.24,0,0,1,95.63,120.65l-81.43-32c-1.49-1.07-3-2.12-4.45-3.15-11-7.76-20.56-14.46-20.56-25,0-6.38,3.45-10.18,9.24-10.18s9.4,3.56,12.44,12.3a10,10,0,0,0,11.84,6.45l6.68-1.63a10.12,10.12,0,0,0,6.41-4.89,9.82,9.82,0,0,0,.78-7.89C182.66,91,175.11,82.4,163.32,78.8V72.63a10,10,0,0,0-10-10h-4a10.05,10.05,0,0,0-10,10v5.31c-16.89,3.65-26.94,17-26.94,36.08a49.49,49.49,0,0,0,.33,5.69L65.85,101.34A98.3,98.3,0,0,1,151.15,51.78Zm0,196.45A98.23,98.23,0,0,1,56.3,124.45l81.1,31.86c2.11,1.54,4.22,3,6.26,4.39,12.88,8.86,23.05,15.86,18.62,29.64A7.17,7.17,0,0,1,157.2,195c-10.83,2.73-16.43-1.24-20.64-14.68a10,10,0,0,0-11.37-6.82l-6.07,1.11a10,10,0,0,0-7.84,12.62c5.06,18,14,28,27.94,31.42v8.73a10.06,10.06,0,0,0,10,10h4a10.05,10.05,0,0,0,10-10v-8.5c18.12-3.66,28.08-16.76,28.08-37,0-1.51-.08-3-.21-4.39L238,195.84A98.33,98.33,0,0,1,151.15,248.23Z"/></svg>