<svg id="Layer_1" data-name="Layer 1" xmlns="http://www.w3.org/2000/svg" viewBox="0 0 300 300"><title>share_alike</title><path d="M151.15,16.78C77.69,16.78,17.92,76.55,17.92,150S77.69,283.23,151.15,283.23,284.37,223.46,284.37,150,224.6,16.78,151.15,16.78Zm0,231.45A98.23,98.23,0,1,1,249.37,150,98.34,98.34,0,0,1,151.15,248.23Z"/><path d="M150.22,79.54c-14.93,0-27.8,4.47-38.25,13.27-10.17,8.58-16.66,20.73-19.29,36.13H90a4,4,0,0,0-2.85,6.88l17.08,17.08a7.16,7.16,0,0,0,10.11,0l17.54-17.55a3.76,3.76,0,0,0-2.66-6.41h-2.16c2.48-13.21,11.35-19.64,27.05-19.64,9,0,15.73,3.27,20.51,10s7.27,16.94,7.27,30.13c0,12.59-2.68,22.76-8,30.24s-11.94,11-20.5,11c-15.72,0-24.31-5.95-26.26-18.19a6,6,0,0,0-6-5.14H98.05a5.74,5.74,0,0,0-5.64,6.86c2.77,13.86,9,24.91,18.66,32.85,10.74,8.88,23.68,13.38,38.46,13.38,20,0,36.53-6.74,49.14-20s18.93-30.11,18.93-50.09c0-20.57-6.14-37.69-18.24-50.88S170.69,79.54,150.22,79.54Z"/></svg>